<svg width="266" height="203" viewBox="0 0 266 203" fill="none" xmlns="http://www.w3.org/2000/svg">
<g clip-path="url(#clip0_18_941)">
<path d="M37.9961 119.867C47.3051 119.867 54.8515 112.318 54.8515 103.006C54.8515 93.6946 47.3051 86.146 37.9961 86.146C28.6871 86.146 21.1406 93.6946 21.1406 103.006C21.1406 112.318 28.6871 119.867 37.9961 119.867Z" fill="#EF3459"/>
<path d="M72.5145 198.241H72.4974C71.9039 198.241 71.3349 198.005 70.9152 197.585C70.4955 197.165 70.2595 196.596 70.2588 196.002V64.5437C70.2595 63.95 70.4955 63.3809 70.9152 62.9611C71.3349 62.5413 71.9039 62.3051 72.4974 62.3044H183.111C183.705 62.3051 184.274 62.5412 184.693 62.961C185.113 63.3808 185.349 63.95 185.35 64.5437V166.76C185.349 167.35 185.116 167.917 184.7 168.336C184.284 168.756 183.719 168.994 183.129 168.999L72.5145 198.241Z" fill="#14161B"/>
<path d="M154.272 43.7317H102.916V13.9625C102.917 13.3339 103.167 12.7313 103.611 12.2868C104.055 11.8423 104.658 11.5923 105.286 11.5916H151.902C152.531 11.5923 153.133 11.8423 153.577 12.2868C154.022 12.7313 154.272 13.3339 154.272 13.9625V43.7317ZM103.443 43.2048H153.746V13.9625C153.745 13.4736 153.551 13.0049 153.205 12.6592C152.86 12.3135 152.391 12.119 151.902 12.1184H105.286C104.798 12.119 104.329 12.3135 103.983 12.6592C103.638 13.0049 103.443 13.4736 103.443 13.9625V43.2048Z" fill="#434958"/>
<path d="M117.533 22.9197H139.655C140.214 22.9197 140.75 23.1417 141.145 23.537C141.54 23.9322 141.762 24.4683 141.762 25.0272V56.6405H115.426V25.0272C115.426 24.4683 115.648 23.9322 116.043 23.537C116.438 23.1417 116.974 22.9197 117.533 22.9197Z" fill="#14161B"/>
<path d="M121.879 12.1184H111.081V1.31722C111.081 0.967993 111.22 0.633185 111.467 0.386245C111.714 0.139306 112.048 0.000399526 112.397 0H120.562C120.911 0.000399526 121.246 0.139306 121.492 0.386245C121.739 0.633185 121.878 0.967993 121.879 1.31722V12.1184ZM111.607 11.5915H121.352V1.31722C121.352 1.10768 121.268 0.906788 121.12 0.758622C120.972 0.610456 120.771 0.527116 120.562 0.526887H112.397C112.188 0.527116 111.987 0.610456 111.839 0.758622C111.691 0.906788 111.608 1.10768 111.607 1.31722V11.5915Z" fill="#434958"/>
<path d="M210.609 170.933C210.504 170.933 210.402 170.933 210.297 170.93C203.781 170.858 197.516 168.408 192.679 164.042C192.5 163.879 192.323 163.714 192.147 163.547L192.065 163.469V112.979L192.091 112.926C192.265 112.556 192.442 112.192 192.619 111.827C198.097 100.702 204.486 94.5762 210.609 94.5762C219.44 94.5762 226.288 106.693 229.585 113.915C234.168 123.959 237.37 136.404 237.37 144.18C237.368 151.224 234.589 157.984 229.636 162.992C224.684 167.999 217.957 170.852 210.915 170.93C210.816 170.933 210.711 170.933 210.609 170.933ZM192.592 163.243C192.738 163.381 192.885 163.517 193.033 163.651C197.776 167.932 203.918 170.333 210.306 170.403C210.413 170.406 210.514 170.403 210.616 170.406C210.712 170.406 210.81 170.406 210.905 170.403C225.209 170.245 236.843 158.481 236.843 144.18C236.843 136.472 233.661 124.116 229.105 114.134C225.862 107.027 219.145 95.1031 210.609 95.1031C204.697 95.1031 198.476 101.125 193.092 112.059C192.925 112.403 192.757 112.748 192.592 113.097L192.592 163.243Z" fill="#434958"/>
<path d="M210.608 202.875C210.528 202.875 210.451 202.843 210.394 202.786C210.337 202.729 210.305 202.652 210.305 202.571V140.697C210.305 140.657 210.313 140.617 210.328 140.58C210.343 140.543 210.365 140.51 210.393 140.481C210.421 140.453 210.455 140.431 210.492 140.415C210.529 140.4 210.568 140.392 210.608 140.392C210.648 140.392 210.688 140.4 210.725 140.415C210.761 140.431 210.795 140.453 210.823 140.481C210.851 140.51 210.874 140.543 210.889 140.58C210.904 140.617 210.911 140.657 210.911 140.697V202.571C210.911 202.652 210.879 202.729 210.822 202.786C210.766 202.843 210.689 202.875 210.608 202.875Z" fill="white"/>
<path d="M53.3782 202.875C53.2978 202.875 53.2208 202.843 53.1639 202.786C53.1071 202.729 53.0752 202.652 53.0752 202.571V140.697C53.075 140.657 53.0826 140.617 53.0977 140.58C53.1129 140.543 53.1352 140.51 53.1633 140.481C53.1915 140.453 53.225 140.431 53.2618 140.415C53.2987 140.4 53.3383 140.392 53.3782 140.392C53.4181 140.392 53.4577 140.4 53.4946 140.415C53.5314 140.431 53.5649 140.453 53.5931 140.481C53.6213 140.51 53.6435 140.543 53.6587 140.58C53.6738 140.617 53.6814 140.657 53.6812 140.697V202.571C53.6812 202.652 53.6493 202.729 53.5925 202.786C53.5356 202.843 53.4586 202.875 53.3782 202.875Z" fill="white"/>
<path d="M210.608 152.257C210.565 152.258 210.522 152.248 210.482 152.23C210.443 152.212 210.407 152.186 210.379 152.153L195.14 134.573C195.087 134.513 195.061 134.433 195.067 134.353C195.072 134.273 195.11 134.199 195.17 134.146C195.231 134.094 195.31 134.067 195.39 134.073C195.47 134.078 195.545 134.116 195.598 134.176L210.837 151.756C210.875 151.8 210.9 151.854 210.908 151.911C210.916 151.969 210.908 152.027 210.884 152.08C210.859 152.133 210.821 152.178 210.772 152.209C210.723 152.241 210.666 152.257 210.608 152.257Z" fill="white"/>
<path d="M210.608 162.403C210.548 162.403 210.49 162.385 210.44 162.352C210.39 162.318 210.351 162.271 210.328 162.216C210.305 162.16 210.299 162.099 210.311 162.041C210.323 161.982 210.352 161.928 210.394 161.885L219.053 153.223C219.11 153.167 219.187 153.135 219.267 153.135C219.347 153.135 219.424 153.167 219.481 153.224C219.538 153.281 219.57 153.358 219.57 153.438C219.57 153.518 219.538 153.595 219.482 153.652L210.822 162.314C210.794 162.342 210.761 162.365 210.724 162.38C210.687 162.395 210.648 162.403 210.608 162.403Z" fill="white"/>
<path d="M238.643 203H215.992V202.737C215.991 201.248 216.283 199.775 216.852 198.4C217.421 197.024 218.255 195.775 219.307 194.722C220.359 193.67 221.607 192.835 222.982 192.265C224.356 191.696 225.829 191.402 227.317 191.402C228.805 191.402 230.278 191.696 231.652 192.265C233.027 192.835 234.276 193.67 235.327 194.722C236.379 195.775 237.213 197.024 237.782 198.4C238.351 199.775 238.643 201.248 238.643 202.737L238.643 203ZM216.522 202.473H238.113C238.044 199.655 236.876 196.975 234.859 195.006C232.842 193.037 230.136 191.935 227.317 191.935C224.499 191.935 221.792 193.037 219.775 195.006C217.758 196.975 216.59 199.655 216.522 202.473Z" fill="#434958"/>
<path d="M227.317 196.307C227.238 196.307 227.162 196.338 227.105 196.394C227.049 196.45 227.018 196.526 227.018 196.606V199.783L223.924 197.126C223.894 197.101 223.86 197.081 223.822 197.069C223.785 197.057 223.746 197.052 223.706 197.055C223.667 197.058 223.629 197.068 223.594 197.086C223.559 197.104 223.527 197.128 223.502 197.158C223.476 197.188 223.457 197.223 223.444 197.26C223.432 197.297 223.428 197.337 223.431 197.376C223.434 197.415 223.444 197.453 223.462 197.488C223.48 197.524 223.505 197.555 223.534 197.58L227.018 200.571V202.437C227.018 202.477 227.025 202.516 227.04 202.552C227.055 202.589 227.077 202.622 227.105 202.649C227.133 202.677 227.166 202.699 227.202 202.715C227.239 202.73 227.278 202.737 227.317 202.737C227.356 202.737 227.395 202.73 227.432 202.715C227.468 202.699 227.501 202.677 227.529 202.649C227.556 202.622 227.578 202.589 227.593 202.552C227.608 202.516 227.616 202.477 227.616 202.437V196.606C227.616 196.526 227.584 196.45 227.528 196.394C227.472 196.338 227.396 196.307 227.317 196.307Z" fill="#434958"/>
<path d="M48.7554 203H26.1045V202.737C26.1038 201.248 26.3962 199.775 26.965 198.4C27.5339 197.024 28.368 195.775 29.4197 194.722C30.4714 193.67 31.7202 192.835 33.0946 192.265C34.469 191.696 35.9422 191.402 37.4299 191.402C38.9177 191.402 40.3908 191.696 41.7652 192.265C43.1397 192.835 44.3884 193.67 45.4401 194.722C46.4919 195.775 47.326 197.024 47.8948 198.4C48.4637 199.775 48.7561 201.248 48.7554 202.737L48.7554 203ZM26.6344 202.473H48.2255C48.1567 199.655 46.9892 196.975 44.9721 195.006C42.955 193.037 40.2483 191.935 37.4299 191.935C34.6115 191.935 31.9048 193.037 29.8877 195.006C27.8707 196.975 26.7031 199.655 26.6344 202.473Z" fill="#434958"/>
<path d="M37.4302 196.307C37.3509 196.307 37.2748 196.338 37.2188 196.394C37.1627 196.45 37.1312 196.526 37.1312 196.606V199.783L34.0373 197.126C34.0075 197.101 33.9729 197.081 33.9356 197.069C33.8983 197.057 33.8588 197.052 33.8196 197.055C33.7804 197.058 33.7422 197.068 33.7071 197.086C33.672 197.104 33.6407 197.128 33.6151 197.158C33.5895 197.188 33.57 197.223 33.5578 197.26C33.5456 197.297 33.5408 197.337 33.5439 197.376C33.5469 197.415 33.5576 197.453 33.5755 197.488C33.5933 197.524 33.6179 197.555 33.6478 197.58L37.1312 200.571V202.437C37.1311 202.477 37.1387 202.516 37.1537 202.552C37.1687 202.589 37.1907 202.622 37.2184 202.649C37.2462 202.677 37.2792 202.699 37.3156 202.715C37.3519 202.73 37.3908 202.737 37.4302 202.737C37.4695 202.737 37.5085 202.73 37.5448 202.715C37.5811 202.699 37.6141 202.677 37.6419 202.649C37.6697 202.622 37.6917 202.589 37.7067 202.552C37.7216 202.516 37.7293 202.477 37.7292 202.437V196.606C37.7292 196.526 37.6977 196.45 37.6416 196.394C37.5855 196.338 37.5095 196.307 37.4302 196.307Z" fill="#434958"/>
<path d="M53.6427 170.933C53.5378 170.933 53.4355 170.933 53.3306 170.93C46.2896 170.85 39.5638 167.997 34.612 162.99C29.6603 157.982 26.8818 151.223 26.8794 144.18C26.8794 136.404 30.0809 123.959 34.6649 113.915C37.9615 106.693 44.8106 94.5762 53.6427 94.5762C57.2806 94.5762 60.9439 96.6503 64.5307 100.741C64.7086 100.943 64.8868 101.15 65.0626 101.363L65.1228 101.436V168.347L64.9743 168.419C64.797 168.505 64.6172 168.586 64.4373 168.664C61.1321 170.127 57.5626 170.898 53.9484 170.93C53.85 170.933 53.745 170.933 53.6427 170.933ZM53.6427 95.1031C45.1052 95.1031 38.3881 107.027 35.1441 114.134C30.5881 124.116 27.4061 136.471 27.4061 144.18C27.4061 158.478 39.0401 170.242 53.3401 170.403C53.4467 170.406 53.5461 170.407 53.6497 170.406C53.7453 170.406 53.8433 170.406 53.9388 170.403C57.4836 170.372 60.9845 169.616 64.2262 168.181C64.3505 168.127 64.4739 168.073 64.5961 168.016V101.626C64.4436 101.443 64.2894 101.264 64.1352 101.089C60.6523 97.1168 57.1223 95.1031 53.6427 95.1031Z" fill="#434958"/>
<path d="M53.6418 152.257C53.5983 152.258 53.5554 152.248 53.5158 152.23C53.4763 152.212 53.4411 152.186 53.4126 152.153L38.1733 134.573C38.1208 134.513 38.0946 134.433 38.1004 134.353C38.1062 134.273 38.1435 134.199 38.2041 134.146C38.2648 134.094 38.3438 134.067 38.4239 134.073C38.5039 134.078 38.5785 134.116 38.6312 134.176L53.8706 151.756C53.9086 151.8 53.9332 151.854 53.9415 151.911C53.9498 151.969 53.9414 152.027 53.9173 152.08C53.8931 152.133 53.8544 152.178 53.8055 152.209C53.7567 152.241 53.6998 152.257 53.6418 152.257Z" fill="white"/>
<path d="M53.6418 162.403C53.5819 162.403 53.5233 162.385 53.4735 162.352C53.4237 162.318 53.3849 162.271 53.3619 162.216C53.339 162.16 53.333 162.099 53.3447 162.041C53.3564 161.982 53.3852 161.928 53.4276 161.885L62.0869 153.223C62.1437 153.167 62.2207 153.135 62.3009 153.135C62.3811 153.135 62.458 153.167 62.5148 153.224C62.5715 153.281 62.6034 153.358 62.6035 153.438C62.6036 153.518 62.5719 153.595 62.5153 153.652L53.8561 162.314C53.828 162.342 53.7946 162.365 53.7578 162.38C53.7211 162.395 53.6816 162.403 53.6418 162.403Z" fill="white"/>
<path d="M77.4379 45.8393L77.6328 46.2239C77.7192 46.3899 77.7644 46.5742 77.7645 46.7613V57.1673H86.9823V46.7613C86.9825 46.5742 87.0276 46.3899 87.114 46.2239L87.309 45.8393H77.4379ZM86.4556 46.7613V56.6405H78.2912V46.7613C78.2914 46.6282 78.2755 46.4955 78.2438 46.3662H86.5031C86.4714 46.4955 86.4555 46.6282 86.4556 46.7613ZM89.026 45.8393L89.2209 46.2239C89.3073 46.3899 89.3525 46.5742 89.3526 46.7613V57.1673H98.5704V46.7613C98.5706 46.5742 98.6157 46.3899 98.7021 46.2239L98.8971 45.8393H89.026ZM98.0437 46.7613V56.6405H89.8794V46.7613C89.8795 46.6282 89.8636 46.4955 89.8319 46.3662H98.0912C98.0595 46.4955 98.0436 46.6282 98.0437 46.7613ZM100.614 45.8393L100.809 46.2239C100.895 46.3899 100.941 46.5742 100.941 46.7613V57.1673H110.159V46.7613C110.159 46.5742 110.204 46.3899 110.29 46.2239L110.485 45.8393H100.614ZM109.632 46.7613V56.6405H101.467V46.7613C101.468 46.6282 101.452 46.4955 101.42 46.3662H109.679C109.648 46.4955 109.632 46.6282 109.632 46.7613ZM112.202 45.8393L112.397 46.2239C112.484 46.3899 112.529 46.5742 112.529 46.7613V57.1673H121.747V46.7613C121.747 46.5742 121.792 46.3899 121.878 46.2239L122.073 45.8393H112.202ZM121.22 46.7613V56.6405H113.056V46.7613C113.056 46.6282 113.04 46.4955 113.008 46.3662H121.267C121.236 46.4955 121.22 46.6282 121.22 46.7613ZM123.79 45.8393L123.985 46.2239C124.072 46.3899 124.117 46.5742 124.117 46.7613V57.1673H133.335V46.7613C133.335 46.5742 133.38 46.3899 133.466 46.2239L133.661 45.8393H123.79ZM132.808 46.7613V56.6405H124.644V46.7613C124.644 46.6282 124.628 46.4955 124.596 46.3662H132.856C132.824 46.4955 132.808 46.6282 132.808 46.7613ZM135.378 45.8393L135.573 46.2239C135.66 46.3899 135.705 46.5742 135.705 46.7613V57.1673H144.923V46.7613C144.923 46.5742 144.968 46.3899 145.055 46.2239L145.25 45.8393H135.378ZM144.396 46.7613V56.6405H136.232V46.7613C136.232 46.6282 136.216 46.4955 136.184 46.3662H144.444C144.412 46.4955 144.396 46.6282 144.396 46.7613ZM146.967 45.8393L147.162 46.2239C147.248 46.3899 147.293 46.5742 147.293 46.7613V57.1673H156.511V46.7613C156.511 46.5742 156.556 46.3899 156.643 46.2239L156.838 45.8393H146.967ZM155.984 46.7613V56.6405H147.82V46.7613C147.82 46.6282 147.804 46.4955 147.772 46.3662H156.032C156 46.4955 155.984 46.6282 155.984 46.7613ZM158.555 45.8393L158.75 46.2239C158.836 46.3899 158.881 46.5742 158.881 46.7613V57.1673H168.099V46.7613C168.099 46.5742 168.144 46.3899 168.231 46.2239L168.426 45.8393H158.555ZM167.572 46.7613V56.6405H159.408V46.7613C159.408 46.6282 159.392 46.4955 159.361 46.3662H167.62C167.588 46.4955 167.572 46.6282 167.572 46.7613ZM170.143 45.8393L170.338 46.2239C170.424 46.3899 170.469 46.5742 170.469 46.7613V57.1673H179.687V46.7613C179.687 46.5742 179.733 46.3899 179.819 46.2239L180.014 45.8393H170.143ZM179.161 46.7613V56.6405H170.996V46.7613C170.996 46.6282 170.98 46.4955 170.949 46.3662H179.208C179.176 46.4955 179.16 46.6282 179.161 46.7613ZM170.143 45.8393L170.338 46.2239C170.424 46.3899 170.469 46.5742 170.469 46.7613V57.1673H179.687V46.7613C179.687 46.5742 179.733 46.3899 179.819 46.2239L180.014 45.8393H170.143ZM179.161 46.7613V56.6405H170.996V46.7613C170.996 46.6282 170.98 46.4955 170.949 46.3662H179.208C179.176 46.4955 179.16 46.6282 179.161 46.7613ZM158.555 45.8393L158.75 46.2239C158.836 46.3899 158.881 46.5742 158.881 46.7613V57.1673H168.099V46.7613C168.099 46.5742 168.144 46.3899 168.231 46.2239L168.426 45.8393H158.555ZM167.572 46.7613V56.6405H159.408V46.7613C159.408 46.6282 159.392 46.4955 159.361 46.3662H167.62C167.588 46.4955 167.572 46.6282 167.572 46.7613ZM146.967 45.8393L147.162 46.2239C147.248 46.3899 147.293 46.5742 147.293 46.7613V57.1673H156.511V46.7613C156.511 46.5742 156.556 46.3899 156.643 46.2239L156.838 45.8393H146.967ZM155.984 46.7613V56.6405H147.82V46.7613C147.82 46.6282 147.804 46.4955 147.772 46.3662H156.032C156 46.4955 155.984 46.6282 155.984 46.7613ZM135.378 45.8393L135.573 46.2239C135.66 46.3899 135.705 46.5742 135.705 46.7613V57.1673H144.923V46.7613C144.923 46.5742 144.968 46.3899 145.055 46.2239L145.25 45.8393H135.378ZM144.396 46.7613V56.6405H136.232V46.7613C136.232 46.6282 136.216 46.4955 136.184 46.3662H144.444C144.412 46.4955 144.396 46.6282 144.396 46.7613ZM123.79 45.8393L123.985 46.2239C124.072 46.3899 124.117 46.5742 124.117 46.7613V57.1673H133.335V46.7613C133.335 46.5742 133.38 46.3899 133.466 46.2239L133.661 45.8393H123.79ZM132.808 46.7613V56.6405H124.644V46.7613C124.644 46.6282 124.628 46.4955 124.596 46.3662H132.856C132.824 46.4955 132.808 46.6282 132.808 46.7613ZM112.202 45.8393L112.397 46.2239C112.484 46.3899 112.529 46.5742 112.529 46.7613V57.1673H121.747V46.7613C121.747 46.5742 121.792 46.3899 121.878 46.2239L122.073 45.8393H112.202ZM121.22 46.7613V56.6405H113.056V46.7613C113.056 46.6282 113.04 46.4955 113.008 46.3662H121.267C121.236 46.4955 121.22 46.6282 121.22 46.7613ZM100.614 45.8393L100.809 46.2239C100.895 46.3899 100.941 46.5742 100.941 46.7613V57.1673H110.159V46.7613C110.159 46.5742 110.204 46.3899 110.29 46.2239L110.485 45.8393H100.614ZM109.632 46.7613V56.6405H101.467V46.7613C101.468 46.6282 101.452 46.4955 101.42 46.3662H109.679C109.648 46.4955 109.632 46.6282 109.632 46.7613ZM89.026 45.8393L89.2209 46.2239C89.3073 46.3899 89.3525 46.5742 89.3526 46.7613V57.1673H98.5704V46.7613C98.5706 46.5742 98.6157 46.3899 98.7021 46.2239L98.8971 45.8393H89.026ZM98.0437 46.7613V56.6405H89.8794V46.7613C89.8795 46.6282 89.8636 46.4955 89.8319 46.3662H98.0912C98.0595 46.4955 98.0436 46.6282 98.0437 46.7613ZM77.4379 45.8393L77.6328 46.2239C77.7192 46.3899 77.7644 46.5742 77.7645 46.7613V57.1673H86.9823V46.7613C86.9825 46.5742 87.0276 46.3899 87.114 46.2239L87.309 45.8393H77.4379ZM86.4556 46.7613V56.6405H78.2912V46.7613C78.2914 46.6282 78.2755 46.4955 78.2438 46.3662H86.5031C86.4714 46.4955 86.4555 46.6282 86.4556 46.7613ZM170.143 45.8393L170.338 46.2239C170.424 46.3899 170.469 46.5742 170.469 46.7613V57.1673H179.687V46.7613C179.687 46.5742 179.733 46.3899 179.819 46.2239L180.014 45.8393H170.143ZM179.161 46.7613V56.6405H170.996V46.7613C170.996 46.6282 170.98 46.4955 170.949 46.3662H179.208C179.176 46.4955 179.16 46.6282 179.161 46.7613ZM158.555 45.8393L158.75 46.2239C158.836 46.3899 158.881 46.5742 158.881 46.7613V57.1673H168.099V46.7613C168.099 46.5742 168.144 46.3899 168.231 46.2239L168.426 45.8393H158.555ZM167.572 46.7613V56.6405H159.408V46.7613C159.408 46.6282 159.392 46.4955 159.361 46.3662H167.62C167.588 46.4955 167.572 46.6282 167.572 46.7613ZM146.967 45.8393L147.162 46.2239C147.248 46.3899 147.293 46.5742 147.293 46.7613V57.1673H156.511V46.7613C156.511 46.5742 156.556 46.3899 156.643 46.2239L156.838 45.8393H146.967ZM155.984 46.7613V56.6405H147.82V46.7613C147.82 46.6282 147.804 46.4955 147.772 46.3662H156.032C156 46.4955 155.984 46.6282 155.984 46.7613ZM135.378 45.8393L135.573 46.2239C135.66 46.3899 135.705 46.5742 135.705 46.7613V57.1673H144.923V46.7613C144.923 46.5742 144.968 46.3899 145.055 46.2239L145.25 45.8393H135.378ZM144.396 46.7613V56.6405H136.232V46.7613C136.232 46.6282 136.216 46.4955 136.184 46.3662H144.444C144.412 46.4955 144.396 46.6282 144.396 46.7613ZM123.79 45.8393L123.985 46.2239C124.072 46.3899 124.117 46.5742 124.117 46.7613V57.1673H133.335V46.7613C133.335 46.5742 133.38 46.3899 133.466 46.2239L133.661 45.8393H123.79ZM132.808 46.7613V56.6405H124.644V46.7613C124.644 46.6282 124.628 46.4955 124.596 46.3662H132.856C132.824 46.4955 132.808 46.6282 132.808 46.7613ZM112.202 45.8393L112.397 46.2239C112.484 46.3899 112.529 46.5742 112.529 46.7613V57.1673H121.747V46.7613C121.747 46.5742 121.792 46.3899 121.878 46.2239L122.073 45.8393H112.202ZM121.22 46.7613V56.6405H113.056V46.7613C113.056 46.6282 113.04 46.4955 113.008 46.3662H121.267C121.236 46.4955 121.22 46.6282 121.22 46.7613ZM100.614 45.8393L100.809 46.2239C100.895 46.3899 100.941 46.5742 100.941 46.7613V57.1673H110.159V46.7613C110.159 46.5742 110.204 46.3899 110.29 46.2239L110.485 45.8393H100.614ZM109.632 46.7613V56.6405H101.467V46.7613C101.468 46.6282 101.452 46.4955 101.42 46.3662H109.679C109.648 46.4955 109.632 46.6282 109.632 46.7613ZM89.026 45.8393L89.2209 46.2239C89.3073 46.3899 89.3525 46.5742 89.3526 46.7613V57.1673H98.5704V46.7613C98.5706 46.5742 98.6157 46.3899 98.7021 46.2239L98.8971 45.8393H89.026ZM98.0437 46.7613V56.6405H89.8794V46.7613C89.8795 46.6282 89.8636 46.4955 89.8319 46.3662H98.0912C98.0595 46.4955 98.0436 46.6282 98.0437 46.7613ZM77.4379 45.8393L77.6328 46.2239C77.7192 46.3899 77.7644 46.5742 77.7645 46.7613V57.1673H86.9823V46.7613C86.9825 46.5742 87.0276 46.3899 87.114 46.2239L87.309 45.8393H77.4379ZM86.4556 46.7613V56.6405H78.2912V46.7613C78.2914 46.6282 78.2755 46.4955 78.2438 46.3662H86.5031C86.4714 46.4955 86.4555 46.6282 86.4556 46.7613ZM170.143 45.8393L170.338 46.2239C170.424 46.3899 170.469 46.5742 170.469 46.7613V57.1673H179.687V46.7613C179.687 46.5742 179.733 46.3899 179.819 46.2239L180.014 45.8393H170.143ZM179.161 46.7613V56.6405H170.996V46.7613C170.996 46.6282 170.98 46.4955 170.949 46.3662H179.208C179.176 46.4955 179.16 46.6282 179.161 46.7613ZM158.555 45.8393L158.75 46.2239C158.836 46.3899 158.881 46.5742 158.881 46.7613V57.1673H168.099V46.7613C168.099 46.5742 168.144 46.3899 168.231 46.2239L168.426 45.8393H158.555ZM167.572 46.7613V56.6405H159.408V46.7613C159.408 46.6282 159.392 46.4955 159.361 46.3662H167.62C167.588 46.4955 167.572 46.6282 167.572 46.7613ZM146.967 45.8393L147.162 46.2239C147.248 46.3899 147.293 46.5742 147.293 46.7613V57.1673H156.511V46.7613C156.511 46.5742 156.556 46.3899 156.643 46.2239L156.838 45.8393H146.967ZM155.984 46.7613V56.6405H147.82V46.7613C147.82 46.6282 147.804 46.4955 147.772 46.3662H156.032C156 46.4955 155.984 46.6282 155.984 46.7613ZM135.378 45.8393L135.573 46.2239C135.66 46.3899 135.705 46.5742 135.705 46.7613V57.1673H144.923V46.7613C144.923 46.5742 144.968 46.3899 145.055 46.2239L145.25 45.8393H135.378ZM144.396 46.7613V56.6405H136.232V46.7613C136.232 46.6282 136.216 46.4955 136.184 46.3662H144.444C144.412 46.4955 144.396 46.6282 144.396 46.7613ZM123.79 45.8393L123.985 46.2239C124.072 46.3899 124.117 46.5742 124.117 46.7613V57.1673H133.335V46.7613C133.335 46.5742 133.38 46.3899 133.466 46.2239L133.661 45.8393H123.79ZM132.808 46.7613V56.6405H124.644V46.7613C124.644 46.6282 124.628 46.4955 124.596 46.3662H132.856C132.824 46.4955 132.808 46.6282 132.808 46.7613ZM112.202 45.8393L112.397 46.2239C112.484 46.3899 112.529 46.5742 112.529 46.7613V57.1673H121.747V46.7613C121.747 46.5742 121.792 46.3899 121.878 46.2239L122.073 45.8393H112.202ZM121.22 46.7613V56.6405H113.056V46.7613C113.056 46.6282 113.04 46.4955 113.008 46.3662H121.267C121.236 46.4955 121.22 46.6282 121.22 46.7613ZM100.614 45.8393L100.809 46.2239C100.895 46.3899 100.941 46.5742 100.941 46.7613V57.1673H110.159V46.7613C110.159 46.5742 110.204 46.3899 110.29 46.2239L110.485 45.8393H100.614ZM109.632 46.7613V56.6405H101.467V46.7613C101.468 46.6282 101.452 46.4955 101.42 46.3662H109.679C109.648 46.4955 109.632 46.6282 109.632 46.7613ZM89.026 45.8393L89.2209 46.2239C89.3073 46.3899 89.3525 46.5742 89.3526 46.7613V57.1673H98.5704V46.7613C98.5706 46.5742 98.6157 46.3899 98.7021 46.2239L98.8971 45.8393H89.026ZM98.0437 46.7613V56.6405H89.8794V46.7613C89.8795 46.6282 89.8636 46.4955 89.8319 46.3662H98.0912C98.0595 46.4955 98.0436 46.6282 98.0437 46.7613ZM77.4379 45.8393L77.6328 46.2239C77.7192 46.3899 77.7644 46.5742 77.7645 46.7613V57.1673H86.9823V46.7613C86.9825 46.5742 87.0276 46.3899 87.114 46.2239L87.309 45.8393H77.4379ZM86.4556 46.7613V56.6405H78.2912V46.7613C78.2914 46.6282 78.2755 46.4955 78.2438 46.3662H86.5031C86.4714 46.4955 86.4555 46.6282 86.4556 46.7613ZM170.143 45.8393L170.338 46.2239C170.424 46.3899 170.469 46.5742 170.469 46.7613V57.1673H179.687V46.7613C179.687 46.5742 179.733 46.3899 179.819 46.2239L180.014 45.8393H170.143ZM179.161 46.7613V56.6405H170.996V46.7613C170.996 46.6282 170.98 46.4955 170.949 46.3662H179.208C179.176 46.4955 179.16 46.6282 179.161 46.7613ZM158.555 45.8393L158.75 46.2239C158.836 46.3899 158.881 46.5742 158.881 46.7613V57.1673H168.099V46.7613C168.099 46.5742 168.144 46.3899 168.231 46.2239L168.426 45.8393H158.555ZM167.572 46.7613V56.6405H159.408V46.7613C159.408 46.6282 159.392 46.4955 159.361 46.3662H167.62C167.588 46.4955 167.572 46.6282 167.572 46.7613ZM146.967 45.8393L147.162 46.2239C147.248 46.3899 147.293 46.5742 147.293 46.7613V57.1673H156.511V46.7613C156.511 46.5742 156.556 46.3899 156.643 46.2239L156.838 45.8393H146.967ZM155.984 46.7613V56.6405H147.82V46.7613C147.82 46.6282 147.804 46.4955 147.772 46.3662H156.032C156 46.4955 155.984 46.6282 155.984 46.7613ZM135.378 45.8393L135.573 46.2239C135.66 46.3899 135.705 46.5742 135.705 46.7613V57.1673H144.923V46.7613C144.923 46.5742 144.968 46.3899 145.055 46.2239L145.25 45.8393H135.378ZM144.396 46.7613V56.6405H136.232V46.7613C136.232 46.6282 136.216 46.4955 136.184 46.3662H144.444C144.412 46.4955 144.396 46.6282 144.396 46.7613ZM123.79 45.8393L123.985 46.2239C124.072 46.3899 124.117 46.5742 124.117 46.7613V57.1673H133.335V46.7613C133.335 46.5742 133.38 46.3899 133.466 46.2239L133.661 45.8393H123.79ZM132.808 46.7613V56.6405H124.644V46.7613C124.644 46.6282 124.628 46.4955 124.596 46.3662H132.856C132.824 46.4955 132.808 46.6282 132.808 46.7613ZM112.202 45.8393L112.397 46.2239C112.484 46.3899 112.529 46.5742 112.529 46.7613V57.1673H121.747V46.7613C121.747 46.5742 121.792 46.3899 121.878 46.2239L122.073 45.8393H112.202ZM121.22 46.7613V56.6405H113.056V46.7613C113.056 46.6282 113.04 46.4955 113.008 46.3662H121.267C121.236 46.4955 121.22 46.6282 121.22 46.7613ZM100.614 45.8393L100.809 46.2239C100.895 46.3899 100.941 46.5742 100.941 46.7613V57.1673H110.159V46.7613C110.159 46.5742 110.204 46.3899 110.29 46.2239L110.485 45.8393H100.614ZM109.632 46.7613V56.6405H101.467V46.7613C101.468 46.6282 101.452 46.4955 101.42 46.3662H109.679C109.648 46.4955 109.632 46.6282 109.632 46.7613ZM89.026 45.8393L89.2209 46.2239C89.3073 46.3899 89.3525 46.5742 89.3526 46.7613V57.1673H98.5704V46.7613C98.5706 46.5742 98.6157 46.3899 98.7021 46.2239L98.8971 45.8393H89.026ZM98.0437 46.7613V56.6405H89.8794V46.7613C89.8795 46.6282 89.8636 46.4955 89.8319 46.3662H98.0912C98.0595 46.4955 98.0436 46.6282 98.0437 46.7613ZM77.4379 45.8393L77.6328 46.2239C77.7192 46.3899 77.7644 46.5742 77.7645 46.7613V57.1673H86.9823V46.7613C86.9825 46.5742 87.0276 46.3899 87.114 46.2239L87.309 45.8393H77.4379ZM86.4556 46.7613V56.6405H78.2912V46.7613C78.2914 46.6282 78.2755 46.4955 78.2438 46.3662H86.5031C86.4714 46.4955 86.4555 46.6282 86.4556 46.7613ZM170.143 45.8393L170.338 46.2239C170.424 46.3899 170.469 46.5742 170.469 46.7613V57.1673H179.687V46.7613C179.687 46.5742 179.733 46.3899 179.819 46.2239L180.014 45.8393H170.143ZM179.161 46.7613V56.6405H170.996V46.7613C170.996 46.6282 170.98 46.4955 170.949 46.3662H179.208C179.176 46.4955 179.16 46.6282 179.161 46.7613ZM158.75 46.2239C158.836 46.3899 158.881 46.5742 158.881 46.7613V57.1673H168.099V46.7613C168.099 46.5742 168.144 46.3899 168.231 46.2239L168.426 45.8393H158.555L158.75 46.2239ZM167.62 46.3662C167.588 46.4955 167.572 46.6282 167.572 46.7613V56.6405H159.408V46.7613C159.408 46.6282 159.392 46.4955 159.361 46.3662H167.62ZM147.162 46.2239C147.248 46.3899 147.293 46.5742 147.293 46.7613V57.1673H156.511V46.7613C156.511 46.5742 156.556 46.3899 156.643 46.2239L156.838 45.8393H146.967L147.162 46.2239ZM156.032 46.3662C156 46.4955 155.984 46.6282 155.984 46.7613V56.6405H147.82V46.7613C147.82 46.6282 147.804 46.4955 147.772 46.3662H156.032ZM135.573 46.2239C135.66 46.3899 135.705 46.5742 135.705 46.7613V57.1673H144.923V46.7613C144.923 46.5742 144.968 46.3899 145.055 46.2239L145.25 45.8393H135.378L135.573 46.2239ZM144.444 46.3662C144.412 46.4955 144.396 46.6282 144.396 46.7613V56.6405H136.232V46.7613C136.232 46.6282 136.216 46.4955 136.184 46.3662H144.444ZM123.985 46.2239C124.072 46.3899 124.117 46.5742 124.117 46.7613V57.1673H133.335V46.7613C133.335 46.5742 133.38 46.3899 133.466 46.2239L133.661 45.8393H123.79L123.985 46.2239ZM132.856 46.3662C132.824 46.4955 132.808 46.6282 132.808 46.7613V56.6405H124.644V46.7613C124.644 46.6282 124.628 46.4955 124.596 46.3662H132.856ZM112.397 46.2239C112.484 46.3899 112.529 46.5742 112.529 46.7613V57.1673H121.747V46.7613C121.747 46.5742 121.792 46.3899 121.878 46.2239L122.073 45.8393H112.202L112.397 46.2239ZM121.267 46.3662C121.236 46.4955 121.22 46.6282 121.22 46.7613V56.6405H113.056V46.7613C113.056 46.6282 113.04 46.4955 113.008 46.3662H121.267ZM100.809 46.2239C100.895 46.3899 100.941 46.5742 100.941 46.7613V57.1673H110.159V46.7613C110.159 46.5742 110.204 46.3899 110.29 46.2239L110.485 45.8393H100.614L100.809 46.2239ZM109.679 46.3662C109.648 46.4955 109.632 46.6282 109.632 46.7613V56.6405H101.467V46.7613C101.468 46.6282 101.452 46.4955 101.42 46.3662H109.679ZM89.2209 46.2239C89.3073 46.3899 89.3525 46.5742 89.3526 46.7613V57.1673H98.5704V46.7613C98.5706 46.5742 98.6157 46.3899 98.7021 46.2239L98.8971 45.8393H89.026L89.2209 46.2239ZM98.0912 46.3662C98.0595 46.4955 98.0436 46.6282 98.0437 46.7613V56.6405H89.8794V46.7613C89.8795 46.6282 89.8636 46.4955 89.8319 46.3662H98.0912ZM77.6328 46.2239C77.7192 46.3899 77.7644 46.5742 77.7645 46.7613V57.1673H86.9823V46.7613C86.9825 46.5742 87.0276 46.3899 87.114 46.2239L87.309 45.8393H77.4379L77.6328 46.2239ZM86.5031 46.3662C86.4714 46.4955 86.4555 46.6282 86.4556 46.7613V56.6405H78.2912V46.7613C78.2914 46.6282 78.2755 46.4955 78.2438 46.3662H86.5031ZM170.338 46.2239C170.424 46.3899 170.469 46.5742 170.469 46.7613V57.1673H179.687V46.7613C179.687 46.5742 179.733 46.3899 179.819 46.2239L180.014 45.8393H170.143L170.338 46.2239ZM179.208 46.3662C179.176 46.4955 179.16 46.6282 179.161 46.7613V56.6405H170.996V46.7613C170.996 46.6282 170.98 46.4955 170.949 46.3662H179.208ZM158.75 46.2239C158.836 46.3899 158.881 46.5742 158.881 46.7613V57.1673H168.099V46.7613C168.099 46.5742 168.144 46.3899 168.231 46.2239L168.426 45.8393H158.555L158.75 46.2239ZM167.62 46.3662C167.588 46.4955 167.572 46.6282 167.572 46.7613V56.6405H159.408V46.7613C159.408 46.6282 159.392 46.4955 159.361 46.3662H167.62ZM147.162 46.2239C147.248 46.3899 147.293 46.5742 147.293 46.7613V57.1673H156.511V46.7613C156.511 46.5742 156.556 46.3899 156.643 46.2239L156.838 45.8393H146.967L147.162 46.2239ZM156.032 46.3662C156 46.4955 155.984 46.6282 155.984 46.7613V56.6405H147.82V46.7613C147.82 46.6282 147.804 46.4955 147.772 46.3662H156.032ZM135.573 46.2239C135.66 46.3899 135.705 46.5742 135.705 46.7613V57.1673H144.923V46.7613C144.923 46.5742 144.968 46.3899 145.055 46.2239L145.25 45.8393H135.378L135.573 46.2239ZM144.444 46.3662C144.412 46.4955 144.396 46.6282 144.396 46.7613V56.6405H136.232V46.7613C136.232 46.6282 136.216 46.4955 136.184 46.3662H144.444ZM123.985 46.2239C124.072 46.3899 124.117 46.5742 124.117 46.7613V57.1673H133.335V46.7613C133.335 46.5742 133.38 46.3899 133.466 46.2239L133.661 45.8393H123.79L123.985 46.2239ZM132.856 46.3662C132.824 46.4955 132.808 46.6282 132.808 46.7613V56.6405H124.644V46.7613C124.644 46.6282 124.628 46.4955 124.596 46.3662H132.856ZM112.397 46.2239C112.484 46.3899 112.529 46.5742 112.529 46.7613V57.1673H121.747V46.7613C121.747 46.5742 121.792 46.3899 121.878 46.2239L122.073 45.8393H112.202L112.397 46.2239ZM121.267 46.3662C121.236 46.4955 121.22 46.6282 121.22 46.7613V56.6405H113.056V46.7613C113.056 46.6282 113.04 46.4955 113.008 46.3662H121.267ZM100.809 46.2239C100.895 46.3899 100.941 46.5742 100.941 46.7613V57.1673H110.159V46.7613C110.159 46.5742 110.204 46.3899 110.29 46.2239L110.485 45.8393H100.614L100.809 46.2239ZM109.679 46.3662C109.648 46.4955 109.632 46.6282 109.632 46.7613V56.6405H101.467V46.7613C101.468 46.6282 101.452 46.4955 101.42 46.3662H109.679ZM89.2209 46.2239C89.3073 46.3899 89.3525 46.5742 89.3526 46.7613V57.1673H98.5704V46.7613C98.5706 46.5742 98.6157 46.3899 98.7021 46.2239L98.8971 45.8393H89.026L89.2209 46.2239ZM98.0912 46.3662C98.0595 46.4955 98.0436 46.6282 98.0437 46.7613V56.6405H89.8794V46.7613C89.8795 46.6282 89.8636 46.4955 89.8319 46.3662H98.0912ZM77.6328 46.2239C77.7192 46.3899 77.7644 46.5742 77.7645 46.7613V57.1673H86.9823V46.7613C86.9825 46.5742 87.0276 46.3899 87.114 46.2239L87.309 45.8393H77.4379L77.6328 46.2239ZM86.5031 46.3662C86.4714 46.4955 86.4555 46.6282 86.4556 46.7613V56.6405H78.2912V46.7613C78.2914 46.6282 78.2755 46.4955 78.2438 46.3662H86.5031ZM190.222 58.748H187.083C186.909 58.142 186.544 57.6087 186.041 57.2285C185.539 56.8484 184.926 56.642 184.296 56.6405H182.584V46.7613C182.585 46.5492 182.545 46.339 182.466 46.1422C182.764 45.9665 182.996 45.6973 183.127 45.3764C183.257 45.0554 183.278 44.7005 183.187 44.3664C183.095 44.0322 182.897 43.7374 182.621 43.5275C182.346 43.3176 182.009 43.2042 181.663 43.2048H75.7893C75.4429 43.2042 75.1061 43.3176 74.8306 43.5275C74.5551 43.7374 74.3563 44.0322 74.265 44.3664C74.1736 44.7005 74.1947 45.0554 74.325 45.3764C74.4553 45.6973 74.6876 45.9665 74.9861 46.1422C74.907 46.339 74.8668 46.5492 74.8675 46.7613V56.6405H73.1556C72.5255 56.642 71.9129 56.8484 71.4103 57.2285C70.9077 57.6087 70.5423 58.142 70.3692 58.748H66.9665C66.3381 58.749 65.7358 58.9991 65.2915 59.4435C64.8472 59.8879 64.5971 60.4905 64.5962 61.119V200.217C64.5976 200.846 64.8477 201.448 65.2919 201.892C65.7362 202.337 66.3383 202.587 66.9665 202.588H190.222C190.85 202.587 191.453 202.337 191.897 201.893C192.341 201.448 192.591 200.846 192.592 200.217V61.119C192.591 60.4905 192.341 59.8879 191.897 59.4435C191.453 58.9991 190.85 58.749 190.222 58.748ZM192.065 200.217C192.065 200.594 191.95 200.961 191.734 201.27C191.519 201.579 191.215 201.815 190.862 201.945C190.658 202.023 190.441 202.063 190.222 202.061H66.9665C66.7478 202.063 66.5308 202.023 66.3265 201.945C65.9736 201.815 65.6691 201.579 65.454 201.27C65.2389 200.961 65.1234 200.594 65.1229 200.217V61.119C65.1235 60.6301 65.3179 60.1613 65.6635 59.8156C66.0091 59.4699 66.4777 59.2754 66.9665 59.2749H70.7906L70.8328 59.0641C70.9435 58.5293 71.2348 58.0489 71.6578 57.7035C72.0807 57.3581 72.6096 57.1688 73.1556 57.1673H75.3942V46.7613C75.3943 46.5469 75.4526 46.3366 75.5628 46.1528L75.726 45.8814L75.4284 45.7708C75.1958 45.6865 75.0005 45.5227 74.8767 45.3085C74.753 45.0942 74.7087 44.8432 74.7519 44.5995C74.795 44.3558 74.9227 44.1352 75.1124 43.9765C75.3022 43.8177 75.5419 43.7311 75.7893 43.7317H181.663C181.91 43.7311 182.15 43.8177 182.339 43.9765C182.529 44.1352 182.657 44.3558 182.7 44.5995C182.743 44.8432 182.699 45.0942 182.575 45.3085C182.451 45.5227 182.256 45.6865 182.023 45.7708L181.726 45.8814L181.889 46.1528C181.999 46.3366 182.058 46.5469 182.058 46.7613V57.1673H184.296C184.842 57.1688 185.371 57.3581 185.794 57.7035C186.217 58.0489 186.508 58.5293 186.619 59.0641L186.661 59.2749H190.222C190.711 59.2754 191.179 59.4699 191.525 59.8156C191.871 60.1613 192.065 60.6301 192.065 61.119L192.065 200.217ZM77.4379 45.8393L77.6328 46.2239C77.7192 46.3899 77.7644 46.5742 77.7645 46.7613V57.1673H86.9823V46.7613C86.9825 46.5742 87.0276 46.3899 87.114 46.2239L87.309 45.8393H77.4379ZM86.4556 46.7613V56.6405H78.2912V46.7613C78.2914 46.6282 78.2755 46.4955 78.2438 46.3662H86.5031C86.4714 46.4955 86.4555 46.6282 86.4556 46.7613ZM89.026 45.8393L89.2209 46.2239C89.3073 46.3899 89.3525 46.5742 89.3526 46.7613V57.1673H98.5704V46.7613C98.5706 46.5742 98.6157 46.3899 98.7021 46.2239L98.8971 45.8393H89.026ZM98.0437 46.7613V56.6405H89.8794V46.7613C89.8795 46.6282 89.8636 46.4955 89.8319 46.3662H98.0912C98.0595 46.4955 98.0436 46.6282 98.0437 46.7613ZM100.614 45.8393L100.809 46.2239C100.895 46.3899 100.941 46.5742 100.941 46.7613V57.1673H110.159V46.7613C110.159 46.5742 110.204 46.3899 110.29 46.2239L110.485 45.8393H100.614ZM109.632 46.7613V56.6405H101.467V46.7613C101.468 46.6282 101.452 46.4955 101.42 46.3662H109.679C109.648 46.4955 109.632 46.6282 109.632 46.7613ZM112.202 45.8393L112.397 46.2239C112.484 46.3899 112.529 46.5742 112.529 46.7613V57.1673H121.747V46.7613C121.747 46.5742 121.792 46.3899 121.878 46.2239L122.073 45.8393H112.202ZM121.22 46.7613V56.6405H113.056V46.7613C113.056 46.6282 113.04 46.4955 113.008 46.3662H121.267C121.236 46.4955 121.22 46.6282 121.22 46.7613ZM123.79 45.8393L123.985 46.2239C124.072 46.3899 124.117 46.5742 124.117 46.7613V57.1673H133.335V46.7613C133.335 46.5742 133.38 46.3899 133.466 46.2239L133.661 45.8393H123.79ZM132.808 46.7613V56.6405H124.644V46.7613C124.644 46.6282 124.628 46.4955 124.596 46.3662H132.856C132.824 46.4955 132.808 46.6282 132.808 46.7613ZM135.378 45.8393L135.573 46.2239C135.66 46.3899 135.705 46.5742 135.705 46.7613V57.1673H144.923V46.7613C144.923 46.5742 144.968 46.3899 145.055 46.2239L145.25 45.8393H135.378ZM144.396 46.7613V56.6405H136.232V46.7613C136.232 46.6282 136.216 46.4955 136.184 46.3662H144.444C144.412 46.4955 144.396 46.6282 144.396 46.7613ZM146.967 45.8393L147.162 46.2239C147.248 46.3899 147.293 46.5742 147.293 46.7613V57.1673H156.511V46.7613C156.511 46.5742 156.556 46.3899 156.643 46.2239L156.838 45.8393H146.967ZM155.984 46.7613V56.6405H147.82V46.7613C147.82 46.6282 147.804 46.4955 147.772 46.3662H156.032C156 46.4955 155.984 46.6282 155.984 46.7613ZM158.555 45.8393L158.75 46.2239C158.836 46.3899 158.881 46.5742 158.881 46.7613V57.1673H168.099V46.7613C168.099 46.5742 168.144 46.3899 168.231 46.2239L168.426 45.8393H158.555ZM167.572 46.7613V56.6405H159.408V46.7613C159.408 46.6282 159.392 46.4955 159.361 46.3662H167.62C167.588 46.4955 167.572 46.6282 167.572 46.7613ZM170.143 45.8393L170.338 46.2239C170.424 46.3899 170.469 46.5742 170.469 46.7613V57.1673H179.687V46.7613C179.687 46.5742 179.733 46.3899 179.819 46.2239L180.014 45.8393H170.143ZM179.161 46.7613V56.6405H170.996V46.7613C170.996 46.6282 170.98 46.4955 170.949 46.3662H179.208C179.176 46.4955 179.16 46.6282 179.161 46.7613ZM77.4379 45.8393L77.6328 46.2239C77.7192 46.3899 77.7644 46.5742 77.7645 46.7613V57.1673H86.9823V46.7613C86.9825 46.5742 87.0276 46.3899 87.114 46.2239L87.309 45.8393H77.4379ZM86.4556 46.7613V56.6405H78.2912V46.7613C78.2914 46.6282 78.2755 46.4955 78.2438 46.3662H86.5031C86.4714 46.4955 86.4555 46.6282 86.4556 46.7613ZM89.026 45.8393L89.2209 46.2239C89.3073 46.3899 89.3525 46.5742 89.3526 46.7613V57.1673H98.5704V46.7613C98.5706 46.5742 98.6157 46.3899 98.7021 46.2239L98.8971 45.8393H89.026ZM98.0437 46.7613V56.6405H89.8794V46.7613C89.8795 46.6282 89.8636 46.4955 89.8319 46.3662H98.0912C98.0595 46.4955 98.0436 46.6282 98.0437 46.7613ZM100.614 45.8393L100.809 46.2239C100.895 46.3899 100.941 46.5742 100.941 46.7613V57.1673H110.159V46.7613C110.159 46.5742 110.204 46.3899 110.29 46.2239L110.485 45.8393H100.614ZM109.632 46.7613V56.6405H101.467V46.7613C101.468 46.6282 101.452 46.4955 101.42 46.3662H109.679C109.648 46.4955 109.632 46.6282 109.632 46.7613ZM112.202 45.8393L112.397 46.2239C112.484 46.3899 112.529 46.5742 112.529 46.7613V57.1673H121.747V46.7613C121.747 46.5742 121.792 46.3899 121.878 46.2239L122.073 45.8393H112.202ZM121.22 46.7613V56.6405H113.056V46.7613C113.056 46.6282 113.04 46.4955 113.008 46.3662H121.267C121.236 46.4955 121.22 46.6282 121.22 46.7613ZM123.79 45.8393L123.985 46.2239C124.072 46.3899 124.117 46.5742 124.117 46.7613V57.1673H133.335V46.7613C133.335 46.5742 133.38 46.3899 133.466 46.2239L133.661 45.8393H123.79ZM132.808 46.7613V56.6405H124.644V46.7613C124.644 46.6282 124.628 46.4955 124.596 46.3662H132.856C132.824 46.4955 132.808 46.6282 132.808 46.7613ZM135.378 45.8393L135.573 46.2239C135.66 46.3899 135.705 46.5742 135.705 46.7613V57.1673H144.923V46.7613C144.923 46.5742 144.968 46.3899 145.055 46.2239L145.25 45.8393H135.378ZM144.396 46.7613V56.6405H136.232V46.7613C136.232 46.6282 136.216 46.4955 136.184 46.3662H144.444C144.412 46.4955 144.396 46.6282 144.396 46.7613ZM146.967 45.8393L147.162 46.2239C147.248 46.3899 147.293 46.5742 147.293 46.7613V57.1673H156.511V46.7613C156.511 46.5742 156.556 46.3899 156.643 46.2239L156.838 45.8393H146.967ZM155.984 46.7613V56.6405H147.82V46.7613C147.82 46.6282 147.804 46.4955 147.772 46.3662H156.032C156 46.4955 155.984 46.6282 155.984 46.7613ZM158.555 45.8393L158.75 46.2239C158.836 46.3899 158.881 46.5742 158.881 46.7613V57.1673H168.099V46.7613C168.099 46.5742 168.144 46.3899 168.231 46.2239L168.426 45.8393H158.555ZM167.572 46.7613V56.6405H159.408V46.7613C159.408 46.6282 159.392 46.4955 159.361 46.3662H167.62C167.588 46.4955 167.572 46.6282 167.572 46.7613ZM170.143 45.8393L170.338 46.2239C170.424 46.3899 170.469 46.5742 170.469 46.7613V57.1673H179.687V46.7613C179.687 46.5742 179.733 46.3899 179.819 46.2239L180.014 45.8393H170.143ZM179.161 46.7613V56.6405H170.996V46.7613C170.996 46.6282 170.98 46.4955 170.949 46.3662H179.208C179.176 46.4955 179.16 46.6282 179.161 46.7613ZM77.4379 45.8393L77.6328 46.2239C77.7192 46.3899 77.7644 46.5742 77.7645 46.7613V57.1673H86.9823V46.7613C86.9825 46.5742 87.0276 46.3899 87.114 46.2239L87.309 45.8393H77.4379ZM86.4556 46.7613V56.6405H78.2912V46.7613C78.2914 46.6282 78.2755 46.4955 78.2438 46.3662H86.5031C86.4714 46.4955 86.4555 46.6282 86.4556 46.7613ZM89.026 45.8393L89.2209 46.2239C89.3073 46.3899 89.3525 46.5742 89.3526 46.7613V57.1673H98.5704V46.7613C98.5706 46.5742 98.6157 46.3899 98.7021 46.2239L98.8971 45.8393H89.026ZM98.0437 46.7613V56.6405H89.8794V46.7613C89.8795 46.6282 89.8636 46.4955 89.8319 46.3662H98.0912C98.0595 46.4955 98.0436 46.6282 98.0437 46.7613ZM100.614 45.8393L100.809 46.2239C100.895 46.3899 100.941 46.5742 100.941 46.7613V57.1673H110.159V46.7613C110.159 46.5742 110.204 46.3899 110.29 46.2239L110.485 45.8393H100.614ZM109.632 46.7613V56.6405H101.467V46.7613C101.468 46.6282 101.452 46.4955 101.42 46.3662H109.679C109.648 46.4955 109.632 46.6282 109.632 46.7613ZM112.202 45.8393L112.397 46.2239C112.484 46.3899 112.529 46.5742 112.529 46.7613V57.1673H121.747V46.7613C121.747 46.5742 121.792 46.3899 121.878 46.2239L122.073 45.8393H112.202ZM121.22 46.7613V56.6405H113.056V46.7613C113.056 46.6282 113.04 46.4955 113.008 46.3662H121.267C121.236 46.4955 121.22 46.6282 121.22 46.7613ZM123.79 45.8393L123.985 46.2239C124.072 46.3899 124.117 46.5742 124.117 46.7613V57.1673H133.335V46.7613C133.335 46.5742 133.38 46.3899 133.466 46.2239L133.661 45.8393H123.79ZM132.808 46.7613V56.6405H124.644V46.7613C124.644 46.6282 124.628 46.4955 124.596 46.3662H132.856C132.824 46.4955 132.808 46.6282 132.808 46.7613ZM135.378 45.8393L135.573 46.2239C135.66 46.3899 135.705 46.5742 135.705 46.7613V57.1673H144.923V46.7613C144.923 46.5742 144.968 46.3899 145.055 46.2239L145.25 45.8393H135.378ZM144.396 46.7613V56.6405H136.232V46.7613C136.232 46.6282 136.216 46.4955 136.184 46.3662H144.444C144.412 46.4955 144.396 46.6282 144.396 46.7613ZM146.967 45.8393L147.162 46.2239C147.248 46.3899 147.293 46.5742 147.293 46.7613V57.1673H156.511V46.7613C156.511 46.5742 156.556 46.3899 156.643 46.2239L156.838 45.8393H146.967ZM155.984 46.7613V56.6405H147.82V46.7613C147.82 46.6282 147.804 46.4955 147.772 46.3662H156.032C156 46.4955 155.984 46.6282 155.984 46.7613ZM158.555 45.8393L158.75 46.2239C158.836 46.3899 158.881 46.5742 158.881 46.7613V57.1673H168.099V46.7613C168.099 46.5742 168.144 46.3899 168.231 46.2239L168.426 45.8393H158.555ZM167.572 46.7613V56.6405H159.408V46.7613C159.408 46.6282 159.392 46.4955 159.361 46.3662H167.62C167.588 46.4955 167.572 46.6282 167.572 46.7613ZM170.143 45.8393L170.338 46.2239C170.424 46.3899 170.469 46.5742 170.469 46.7613V57.1673H179.687V46.7613C179.687 46.5742 179.733 46.3899 179.819 46.2239L180.014 45.8393H170.143ZM179.161 46.7613V56.6405H170.996V46.7613C170.996 46.6282 170.98 46.4955 170.949 46.3662H179.208C179.176 46.4955 179.16 46.6282 179.161 46.7613ZM77.4379 45.8393L77.6328 46.2239C77.7192 46.3899 77.7644 46.5742 77.7645 46.7613V57.1673H86.9823V46.7613C86.9825 46.5742 87.0276 46.3899 87.114 46.2239L87.309 45.8393H77.4379ZM86.4556 46.7613V56.6405H78.2912V46.7613C78.2914 46.6282 78.2755 46.4955 78.2438 46.3662H86.5031C86.4714 46.4955 86.4555 46.6282 86.4556 46.7613ZM89.026 45.8393L89.2209 46.2239C89.3073 46.3899 89.3525 46.5742 89.3526 46.7613V57.1673H98.5704V46.7613C98.5706 46.5742 98.6157 46.3899 98.7021 46.2239L98.8971 45.8393H89.026ZM98.0437 46.7613V56.6405H89.8794V46.7613C89.8795 46.6282 89.8636 46.4955 89.8319 46.3662H98.0912C98.0595 46.4955 98.0436 46.6282 98.0437 46.7613ZM100.614 45.8393L100.809 46.2239C100.895 46.3899 100.941 46.5742 100.941 46.7613V57.1673H110.159V46.7613C110.159 46.5742 110.204 46.3899 110.29 46.2239L110.485 45.8393H100.614ZM109.632 46.7613V56.6405H101.467V46.7613C101.468 46.6282 101.452 46.4955 101.42 46.3662H109.679C109.648 46.4955 109.632 46.6282 109.632 46.7613ZM112.202 45.8393L112.397 46.2239C112.484 46.3899 112.529 46.5742 112.529 46.7613V57.1673H121.747V46.7613C121.747 46.5742 121.792 46.3899 121.878 46.2239L122.073 45.8393H112.202ZM121.22 46.7613V56.6405H113.056V46.7613C113.056 46.6282 113.04 46.4955 113.008 46.3662H121.267C121.236 46.4955 121.22 46.6282 121.22 46.7613ZM123.79 45.8393L123.985 46.2239C124.072 46.3899 124.117 46.5742 124.117 46.7613V57.1673H133.335V46.7613C133.335 46.5742 133.38 46.3899 133.466 46.2239L133.661 45.8393H123.79ZM132.808 46.7613V56.6405H124.644V46.7613C124.644 46.6282 124.628 46.4955 124.596 46.3662H132.856C132.824 46.4955 132.808 46.6282 132.808 46.7613ZM135.378 45.8393L135.573 46.2239C135.66 46.3899 135.705 46.5742 135.705 46.7613V57.1673H144.923V46.7613C144.923 46.5742 144.968 46.3899 145.055 46.2239L145.25 45.8393H135.378ZM144.396 46.7613V56.6405H136.232V46.7613C136.232 46.6282 136.216 46.4955 136.184 46.3662H144.444C144.412 46.4955 144.396 46.6282 144.396 46.7613ZM146.967 45.8393L147.162 46.2239C147.248 46.3899 147.293 46.5742 147.293 46.7613V57.1673H156.511V46.7613C156.511 46.5742 156.556 46.3899 156.643 46.2239L156.838 45.8393H146.967ZM155.984 46.7613V56.6405H147.82V46.7613C147.82 46.6282 147.804 46.4955 147.772 46.3662H156.032C156 46.4955 155.984 46.6282 155.984 46.7613ZM158.555 45.8393L158.75 46.2239C158.836 46.3899 158.881 46.5742 158.881 46.7613V57.1673H168.099V46.7613C168.099 46.5742 168.144 46.3899 168.231 46.2239L168.426 45.8393H158.555ZM167.572 46.7613V56.6405H159.408V46.7613C159.408 46.6282 159.392 46.4955 159.361 46.3662H167.62C167.588 46.4955 167.572 46.6282 167.572 46.7613ZM170.143 45.8393L170.338 46.2239C170.424 46.3899 170.469 46.5742 170.469 46.7613V57.1673H179.687V46.7613C179.687 46.5742 179.733 46.3899 179.819 46.2239L180.014 45.8393H170.143ZM179.161 46.7613V56.6405H170.996V46.7613C170.996 46.6282 170.98 46.4955 170.949 46.3662H179.208C179.176 46.4955 179.16 46.6282 179.161 46.7613Z" fill="#434958"/>
<path d="M108.75 91.9417H89.329C88.9199 91.9413 88.5278 91.7785 88.2385 91.4892C87.9493 91.1999 87.7866 90.8076 87.7861 90.3984V80.0494C87.7866 79.6402 87.9493 79.248 88.2385 78.9586C88.5278 78.6693 88.9199 78.5066 89.329 78.5061H108.75C109.159 78.5066 109.552 78.6693 109.841 78.9586C110.13 79.2479 110.293 79.6402 110.293 80.0494V90.3984C110.293 90.8076 110.13 91.1999 109.841 91.4892C109.552 91.7785 109.159 91.9413 108.75 91.9417Z" fill="#0B40C5"/>
<path d="M138.305 91.9417H118.884C118.475 91.9413 118.082 91.7785 117.793 91.4892C117.504 91.1999 117.341 90.8076 117.341 90.3984V80.0494C117.341 79.6402 117.504 79.248 117.793 78.9586C118.082 78.6693 118.475 78.5066 118.884 78.5061H138.305C138.714 78.5066 139.106 78.6693 139.396 78.9586C139.685 79.2479 139.848 79.6402 139.848 80.0494V90.3984C139.848 90.8076 139.685 91.1999 139.396 91.4892C139.106 91.7785 138.714 91.9413 138.305 91.9417Z" fill="#0B40C5"/>
<path d="M167.86 91.9417H148.438C148.029 91.9413 147.637 91.7785 147.348 91.4892C147.059 91.1999 146.896 90.8076 146.896 90.3984V80.0494C146.896 79.6402 147.059 79.248 147.348 78.9586C147.637 78.6693 148.029 78.5066 148.438 78.5061H167.86C168.269 78.5066 168.661 78.6693 168.95 78.9586C169.24 79.2479 169.402 79.6402 169.403 80.0494V90.3984C169.402 90.8076 169.24 91.1999 168.95 91.4892C168.661 91.7785 168.269 91.9413 167.86 91.9417Z" fill="#0B40C5"/>
<path d="M108.75 126.453H89.329C88.9199 126.452 88.5278 126.29 88.2385 126C87.9493 125.711 87.7866 125.319 87.7861 124.91V114.561C87.7866 114.151 87.9493 113.759 88.2385 113.47C88.5278 113.181 88.9199 113.018 89.329 113.017H108.75C109.159 113.018 109.552 113.181 109.841 113.47C110.13 113.759 110.293 114.151 110.293 114.561V124.91C110.293 125.319 110.13 125.711 109.841 126C109.552 126.29 109.159 126.453 108.75 126.453Z" fill="#0B40C5"/>
<path d="M138.305 126.453H118.884C118.475 126.452 118.082 126.29 117.793 126C117.504 125.711 117.341 125.319 117.341 124.91V114.561C117.341 114.151 117.504 113.759 117.793 113.47C118.082 113.181 118.475 113.018 118.884 113.017H138.305C138.714 113.018 139.106 113.181 139.396 113.47C139.685 113.759 139.848 114.151 139.848 114.561V124.91C139.848 125.319 139.685 125.711 139.396 126C139.106 126.29 138.714 126.452 138.305 126.453Z" fill="#0B40C5"/>
<path d="M167.86 126.453H148.438C148.029 126.452 147.637 126.29 147.348 126C147.059 125.711 146.896 125.319 146.896 124.91V114.561C146.896 114.151 147.059 113.759 147.348 113.47C147.637 113.181 148.029 113.018 148.438 113.017H167.86C168.269 113.018 168.661 113.181 168.95 113.47C169.24 113.759 169.402 114.151 169.403 114.561V124.91C169.402 125.319 169.24 125.711 168.95 126C168.661 126.29 168.269 126.453 167.86 126.453Z" fill="#0B40C5"/>
<path d="M108.75 160.964H89.329C88.9199 160.963 88.5278 160.801 88.2385 160.511C87.9493 160.222 87.7866 159.83 87.7861 159.421V149.072C87.7866 148.662 87.9493 148.27 88.2385 147.981C88.5278 147.692 88.9199 147.529 89.329 147.528H108.75C109.159 147.529 109.552 147.692 109.841 147.981C110.13 148.27 110.293 148.662 110.293 149.072V159.421C110.293 159.83 110.13 160.222 109.841 160.511C109.552 160.801 109.159 160.963 108.75 160.964Z" fill="#0B40C5"/>
<path d="M138.305 160.964H118.884C118.475 160.963 118.082 160.801 117.793 160.511C117.504 160.222 117.341 159.83 117.341 159.421V149.072C117.341 148.662 117.504 148.27 117.793 147.981C118.082 147.692 118.475 147.529 118.884 147.528H138.305C138.714 147.529 139.106 147.692 139.396 147.981C139.685 148.27 139.848 148.662 139.848 149.072V159.421C139.848 159.83 139.685 160.222 139.396 160.511C139.106 160.801 138.714 160.963 138.305 160.964Z" fill="#0B40C5"/>
<path d="M167.86 160.964H148.438C148.029 160.963 147.637 160.801 147.348 160.511C147.059 160.222 146.896 159.83 146.896 159.421V149.072C146.896 148.662 147.059 148.27 147.348 147.981C147.637 147.692 148.029 147.529 148.438 147.528H167.86C168.269 147.529 168.661 147.692 168.95 147.981C169.24 148.27 169.402 148.662 169.403 149.072V159.421C169.402 159.83 169.24 160.222 168.95 160.511C168.661 160.801 168.269 160.963 167.86 160.964Z" fill="#0B40C5"/>
<path d="M105.606 93.2696H83.1073C82.5636 93.269 82.0424 93.0527 81.6579 92.6681C81.2735 92.2835 81.0572 91.7621 81.0566 91.2183V79.2296C81.0572 78.6857 81.2735 78.1643 81.6579 77.7798C82.0424 77.3952 82.5636 77.1789 83.1073 77.1782H105.606C106.15 77.1788 106.671 77.3952 107.055 77.7797C107.44 78.1643 107.656 78.6857 107.657 79.2296V91.2183C107.656 91.7621 107.44 92.2835 107.055 92.6681C106.671 93.0527 106.15 93.269 105.606 93.2696ZM83.1073 77.7051C82.7032 77.7056 82.3159 77.8663 82.0302 78.1521C81.7445 78.4379 81.5838 78.8254 81.5834 79.2296V91.2183C81.5838 91.6225 81.7445 92.0099 82.0302 92.2957C82.3159 92.5815 82.7032 92.7423 83.1073 92.7427H105.606C106.01 92.7423 106.397 92.5815 106.683 92.2957C106.969 92.0099 107.129 91.6225 107.13 91.2183V79.2296C107.129 78.8254 106.969 78.4379 106.683 78.1521C106.397 77.8663 106.01 77.7056 105.606 77.7051H83.1073Z" fill="#434958"/>
<path d="M139.844 93.2696H117.345C116.801 93.269 116.28 93.0527 115.896 92.6681C115.511 92.2835 115.295 91.7621 115.294 91.2183V79.2296C115.295 78.6857 115.511 78.1643 115.896 77.7797C116.28 77.3952 116.801 77.1788 117.345 77.1782H139.844C140.387 77.1788 140.909 77.3952 141.293 77.7797C141.678 78.1643 141.894 78.6857 141.894 79.2296V91.2183C141.894 91.7621 141.678 92.2835 141.293 92.6681C140.909 93.0527 140.387 93.269 139.844 93.2696ZM117.345 77.7051C116.941 77.7056 116.554 77.8663 116.268 78.1521C115.982 78.4379 115.822 78.8254 115.821 79.2296V91.2183C115.822 91.6225 115.982 92.0099 116.268 92.2957C116.554 92.5815 116.941 92.7423 117.345 92.7427H139.844C140.248 92.7423 140.635 92.5815 140.921 92.2957C141.207 92.0099 141.367 91.6225 141.368 91.2183V79.2296C141.367 78.8254 141.207 78.4379 140.921 78.1521C140.635 77.8663 140.248 77.7056 139.844 77.7051H117.345Z" fill="#434958"/>
<path d="M174.081 93.2696H151.582C151.039 93.269 150.517 93.0527 150.133 92.6681C149.749 92.2835 149.532 91.7621 149.532 91.2183V79.2296C149.532 78.6857 149.749 78.1643 150.133 77.7797C150.517 77.3952 151.039 77.1788 151.582 77.1782H174.081C174.625 77.1788 175.146 77.3952 175.53 77.7797C175.915 78.1643 176.131 78.6857 176.132 79.2296V91.2183C176.131 91.7621 175.915 92.2835 175.53 92.6681C175.146 93.0527 174.625 93.269 174.081 93.2696ZM151.582 77.7051C151.178 77.7056 150.791 77.8663 150.505 78.1521C150.22 78.4379 150.059 78.8254 150.058 79.2296V91.2183C150.059 91.6225 150.22 92.0099 150.505 92.2957C150.791 92.5815 151.178 92.7423 151.582 92.7427H174.081C174.485 92.7423 174.872 92.5815 175.158 92.2957C175.444 92.0099 175.605 91.6225 175.605 91.2183V79.2296C175.605 78.8254 175.444 78.4379 175.158 78.1521C174.872 77.8663 174.485 77.7056 174.081 77.7051H151.582Z" fill="#434958"/>
<path d="M105.606 127.781H83.1073C82.5636 127.78 82.0424 127.564 81.6579 127.179C81.2735 126.795 81.0572 126.273 81.0566 125.73V113.741C81.0572 113.197 81.2735 112.676 81.6579 112.291C82.0424 111.906 82.5636 111.69 83.1073 111.689H105.606C106.15 111.69 106.671 111.906 107.055 112.291C107.44 112.676 107.656 113.197 107.657 113.741V125.73C107.656 126.273 107.44 126.795 107.055 127.179C106.671 127.564 106.15 127.78 105.606 127.781ZM83.1073 112.216C82.7032 112.217 82.3159 112.378 82.0302 112.663C81.7445 112.949 81.5838 113.337 81.5834 113.741V125.73C81.5838 126.134 81.7445 126.521 82.0302 126.807C82.3159 127.093 82.7032 127.254 83.1073 127.254H105.606C106.01 127.254 106.397 127.093 106.683 126.807C106.969 126.521 107.129 126.134 107.13 125.73V113.741C107.129 113.337 106.969 112.949 106.683 112.663C106.397 112.378 106.01 112.217 105.606 112.216H83.1073Z" fill="#434958"/>
<path d="M139.844 127.781H117.345C116.801 127.78 116.28 127.564 115.896 127.179C115.511 126.795 115.295 126.273 115.294 125.73V113.741C115.295 113.197 115.511 112.676 115.896 112.291C116.28 111.906 116.801 111.69 117.345 111.689H139.844C140.387 111.69 140.909 111.906 141.293 112.291C141.678 112.676 141.894 113.197 141.894 113.741V125.73C141.894 126.273 141.678 126.795 141.293 127.179C140.909 127.564 140.387 127.78 139.844 127.781ZM117.345 112.216C116.941 112.217 116.554 112.378 116.268 112.663C115.982 112.949 115.822 113.337 115.821 113.741V125.73C115.822 126.134 115.982 126.521 116.268 126.807C116.554 127.093 116.941 127.254 117.345 127.254H139.844C140.248 127.254 140.635 127.093 140.921 126.807C141.207 126.521 141.367 126.134 141.368 125.73V113.741C141.367 113.337 141.207 112.949 140.921 112.663C140.635 112.378 140.248 112.217 139.844 112.216H117.345Z" fill="#434958"/>
<path d="M174.081 127.781H151.582C151.039 127.78 150.517 127.564 150.133 127.179C149.749 126.795 149.532 126.273 149.532 125.73V113.741C149.532 113.197 149.749 112.676 150.133 112.291C150.517 111.906 151.039 111.69 151.582 111.689H174.081C174.625 111.69 175.146 111.906 175.53 112.291C175.915 112.676 176.131 113.197 176.132 113.741V125.73C176.131 126.273 175.915 126.795 175.53 127.179C175.146 127.564 174.625 127.78 174.081 127.781ZM151.582 112.216C151.178 112.217 150.791 112.378 150.505 112.663C150.22 112.949 150.059 113.337 150.058 113.741V125.73C150.059 126.134 150.22 126.521 150.505 126.807C150.791 127.093 151.178 127.254 151.582 127.254H174.081C174.485 127.254 174.872 127.093 175.158 126.807C175.444 126.521 175.605 126.134 175.605 125.73V113.741C175.605 113.337 175.444 112.949 175.158 112.663C174.872 112.378 174.485 112.217 174.081 112.216H151.582Z" fill="#434958"/>
<path d="M105.606 162.292H83.1073C82.5636 162.291 82.0424 162.075 81.6579 161.69C81.2735 161.306 81.0572 160.784 81.0566 160.241V148.252C81.0572 147.708 81.2735 147.187 81.6579 146.802C82.0424 146.417 82.5636 146.201 83.1073 146.2H105.606C106.15 146.201 106.671 146.417 107.055 146.802C107.44 147.187 107.656 147.708 107.657 148.252V160.241C107.656 160.784 107.44 161.306 107.055 161.69C106.671 162.075 106.15 162.291 105.606 162.292ZM83.1073 146.727C82.7032 146.728 82.3159 146.889 82.0302 147.174C81.7445 147.46 81.5838 147.848 81.5834 148.252V160.241C81.5838 160.645 81.7445 161.032 82.0302 161.318C82.3159 161.604 82.7032 161.765 83.1073 161.765H105.606C106.01 161.765 106.397 161.604 106.683 161.318C106.969 161.032 107.129 160.645 107.13 160.241V148.252C107.129 147.848 106.969 147.46 106.683 147.174C106.397 146.889 106.01 146.728 105.606 146.727H83.1073Z" fill="#434958"/>
<path d="M139.844 162.292H117.345C116.801 162.291 116.28 162.075 115.896 161.69C115.511 161.306 115.295 160.784 115.294 160.241V148.252C115.295 147.708 115.511 147.187 115.896 146.802C116.28 146.417 116.801 146.201 117.345 146.2H139.844C140.387 146.201 140.909 146.417 141.293 146.802C141.678 147.187 141.894 147.708 141.894 148.252V160.241C141.894 160.784 141.678 161.306 141.293 161.69C140.909 162.075 140.387 162.291 139.844 162.292ZM117.345 146.727C116.941 146.728 116.554 146.889 116.268 147.174C115.982 147.46 115.822 147.848 115.821 148.252V160.241C115.822 160.645 115.982 161.032 116.268 161.318C116.554 161.604 116.941 161.765 117.345 161.765H139.844C140.248 161.765 140.635 161.604 140.921 161.318C141.207 161.032 141.367 160.645 141.368 160.241V148.252C141.367 147.848 141.207 147.46 140.921 147.174C140.635 146.889 140.248 146.728 139.844 146.727H117.345Z" fill="#434958"/>
<path d="M174.081 162.292H151.582C151.039 162.291 150.517 162.075 150.133 161.69C149.749 161.306 149.532 160.784 149.532 160.241V148.252C149.532 147.708 149.749 147.187 150.133 146.802C150.517 146.417 151.039 146.201 151.582 146.2H174.081C174.625 146.201 175.146 146.417 175.53 146.802C175.915 147.187 176.131 147.708 176.132 148.252V160.241C176.131 160.784 175.915 161.306 175.53 161.69C175.146 162.075 174.625 162.291 174.081 162.292ZM151.582 146.727C151.178 146.728 150.791 146.889 150.505 147.174C150.22 147.46 150.059 147.848 150.058 148.252V160.241C150.059 160.645 150.22 161.032 150.505 161.318C150.791 161.604 151.178 161.765 151.582 161.765H174.081C174.485 161.765 174.872 161.604 175.158 161.318C175.444 161.032 175.605 160.645 175.605 160.241V148.252C175.605 147.848 175.444 147.46 175.158 147.174C174.872 146.889 174.485 146.728 174.081 146.727H151.582Z" fill="#434958"/>
<path d="M265.737 202.983H0.263366C0.193517 202.983 0.126529 202.955 0.077138 202.906C0.0277472 202.857 0 202.79 0 202.72C0 202.65 0.0277472 202.583 0.077138 202.533C0.126529 202.484 0.193517 202.456 0.263366 202.456H265.737C265.806 202.456 265.873 202.484 265.923 202.533C265.972 202.583 266 202.65 266 202.72C266 202.79 265.972 202.857 265.923 202.906C265.873 202.955 265.806 202.983 265.737 202.983Z" fill="#434958"/>
<path d="M141.894 177.485C141.901 176.883 141.67 176.304 141.25 175.874C140.83 175.443 140.257 175.197 139.656 175.19H128.594V202.456H141.894V177.485Z" fill="#434958"/>
<path d="M128.857 202.193H115.031V177.561C115.032 176.898 115.295 176.261 115.764 175.792C116.233 175.323 116.869 175.059 117.533 175.058H128.857V202.193ZM115.557 201.666H128.331V175.585H117.533C117.009 175.586 116.507 175.794 116.137 176.165C115.766 176.535 115.558 177.037 115.557 177.561V201.666Z" fill="#434958"/>
<path d="M116.743 190.47C117.179 190.47 117.533 190.116 117.533 189.679C117.533 189.243 117.179 188.889 116.743 188.889C116.306 188.889 115.953 189.243 115.953 189.679C115.953 190.116 116.306 190.47 116.743 190.47Z" fill="#434958"/>
</g>
<defs>
<clipPath id="clip0_18_941">
<rect width="266" height="203" fill="white"/>
</clipPath>
</defs>
</svg>
